<svg width="45" height="24" viewBox="0 0 45 24" fill="none" xmlns="http://www.w3.org/2000/svg">
<rect width="24" height="24" fill="white"/>
<path fill-rule="evenodd" clip-rule="evenodd" d="M11.0014 5.99897C11.0014 6.25897 10.9014 6.50897 10.7114 6.70897L6.41141 10.999L44.0014 10.999C44.5514 10.999 45.0014 11.449 45.0014 11.999C45.0014 12.549 44.5514 12.999 44.0014 12.999L6.41141 12.999L10.7114 17.289C11.1014 17.679 11.1014 18.319 10.7114 18.709C10.3214 19.099 9.68141 19.099 9.29141 18.709L3.29141 12.709C3.20141 12.619 3.13141 12.509 3.08141 12.389C3.06141 12.339 3.04141 12.299 3.04141 12.249C2.99141 12.089 2.99141 11.909 3.04141 11.749C3.04141 11.699 3.06141 11.659 3.08141 11.609C3.13141 11.489 3.20141 11.379 3.29141 11.289L9.29141 5.28897C9.68141 4.89896 10.3214 4.89896 10.7114 5.28897C10.9014 5.48897 11.0014 5.73897 11.0014 5.99897Z" fill="#313037"/>
</svg>
